<?xml version="1.0" encoding="UTF-8"?>
<svg width="28px" height="25px" viewBox="0 0 28 25" version="1.1" xmlns="http://www.w3.org/2000/svg" xmlns:xlink="http://www.w3.org/1999/xlink">
    <!-- Generator: sketchtool 63.1 (101010) - https://sketch.com -->
    <title>37CB2354-2C15-4177-B08F-942A9B165EE1</title>
    <desc>Created with sketchtool.</desc>
    <g id="Final" stroke="none" stroke-width="1" fill="none" fill-rule="evenodd">
        <g id="04.-Hotspot-open-Copy" transform="translate(-657.000000, -532.000000)" fill="#FFFFFF">
            <g id="expanded-panel" transform="translate(-6.000000, -10.000000)">
                <g id="Arrow" transform="translate(634.000000, 512.000000)">
                    <path d="M54.1378759,40.206503 L37.4347568,40.2074892 L42.9698458,34.5546134 C43.9126392,33.5919496 43.9126392,32.0308467 42.9698458,31.0680186 C42.0272133,30.1053548 40.498594,30.1053548 39.5558006,31.0680186 L29.89933,40.9298568 C29.4464415,41.3923693 29.1921545,42.019243 29.1921545,42.6732364 C29.1921545,43.3272297 29.4466025,43.9542678 29.89933,44.4164516 L39.5558006,54.2779611 C40.0271973,54.7593752 40.6448895,55 41.2627427,55 C41.8805959,55 42.498449,54.7592108 42.9696848,54.2779611 C43.9124782,53.3152974 43.9124782,51.7541944 42.9696848,50.7913663 L37.434113,45.1381618 L54.1381978,45.1371756 C55.4714345,45.1371756 56.5521545,44.0331612 56.5521545,42.6715928 C56.5521545,41.3101887 55.4711126,40.206503 54.1378759,40.206503" id="arrow-icon" transform="translate(42.872154, 42.673010) scale(-1, 1) rotate(-180.000000) translate(-42.872154, -42.673010) "></path>
                </g>
            </g>
        </g>
    </g>
</svg>