<?xml version="1.0" encoding="UTF-8"?>
<svg width="49px" height="48px" viewBox="0 0 49 48" version="1.1" xmlns="http://www.w3.org/2000/svg" xmlns:xlink="http://www.w3.org/1999/xlink">
    <!-- Generator: sketchtool 62 (101010) - https://sketch.com -->
    <title>174A6580-9D1D-4A97-BA56-D4008639444F</title>
    <desc>Created with sketchtool.</desc>
    <g id="June2020,-Production" stroke="none" stroke-width="1" fill="none" fill-rule="evenodd">
        <g id="assets" transform="translate(-564.000000, -359.000000)">
            <g id="hotspot/left" transform="translate(202.000000, 347.000000)">
                <g id="Group">
                    <g id="EXPAND" transform="translate(362.000000, 12.000000)">
                        <circle id="Oval" fill="#09615E" cx="24" cy="24" r="24"></circle>
                        <g id="global-icon/plus-copy" transform="translate(8.096271, 8.000000)" fill="#E7DFC7" fill-rule="nonzero">
                            <g id="icon_plus">
                                <g id="Oval-2">
                                    <path d="M16,0 C24.836556,0 32,7.163444 32,16 C32,24.836556 24.836556,32 16,32 C7.163444,32 0,24.836556 0,16 C0,7.163444 7.163444,0 16,0 Z M15.330386,11.1486877 L15.330386,15.3930667 L11.1397333,15.3930667 L11.1486877,17.2734877 L15.330386,17.2734877 L15.3393404,21.4730947 L17.2197614,21.4910035 L17.2197614,17.2734877 L21.4910035,17.2734877 L21.4730947,15.3930667 L17.210807,15.3930667 L17.210807,11.1576421 L15.330386,11.1486877 Z"></path>
                                </g>
                            </g>
                        </g>
                        <g id="Group-Copy" opacity="0.30099" stroke="#E7DFC7">
                            <circle id="Oval" cx="24.4037288" cy="24" r="23.5"></circle>
                            <ellipse id="Oval" stroke-width="2" cx="24.4037288" cy="24" rx="19.5" ry="19.5833333"></ellipse>
                        </g>
                    </g>
                </g>
            </g>
        </g>
    </g>
</svg>