<?xml version="1.0" encoding="UTF-8"?>
<svg width="286px" height="248px" viewBox="0 0 286 248" version="1.1" xmlns="http://www.w3.org/2000/svg" xmlns:xlink="http://www.w3.org/1999/xlink">
    <!-- Generator: sketchtool 62 (101010) - https://sketch.com -->
    <title>C1AF5EF5-2DD8-4277-B9EE-0DA19E43D389</title>
    <desc>Created with sketchtool.</desc>
    <g id="June2020,-Production" stroke="none" stroke-width="1" fill="none" fill-rule="evenodd">
        <g id="Cockpit_II" transform="translate(-1607.000000, -303.000000)">
            <g id="side_bar" transform="translate(1579.000000, 0.000000)">
                <g id="icon_plane" transform="translate(29.000000, 289.000000)">
                    <g transform="translate(1.000000, 16.000000)" id="Group-121">
                        <g>
                            <path d="M142.673981,2.7626967 C148.379582,11.5306088 152.686279,33.0937736 152.7748,46.7470484" id="Stroke-1" stroke="#EBE8E1" stroke-width="4" stroke-linecap="round" stroke-linejoin="round"></path>
                            <path d="M150.210499,205.799923 C149.812153,208.589835 152.161991,210.145 154.183228,210.492231" id="Stroke-3" stroke="#EBE8E1" stroke-width="4" stroke-linecap="round" stroke-linejoin="round"></path>
                            <line x1="194.940057" y1="229.374077" x2="151.108588" y2="235.091989" id="Stroke-5" stroke="#EBE8E1" stroke-width="4" stroke-linecap="round" stroke-linejoin="round"></line>
                            <line x1="154.183094" y1="210.492231" x2="195.499753" y2="217.876582" id="Stroke-7" stroke="#EBE8E1" stroke-width="4" stroke-linecap="round" stroke-linejoin="round"></line>
                            <path d="M153.534743,163.211734 C153.625946,177.450877 152.680378,191.777163 150.209828,205.800459" id="Stroke-9" stroke="#EBE8E1" stroke-width="4" stroke-linecap="round" stroke-linejoin="round"></path>
                            <line x1="152.775069" y1="46.7465121" x2="153.534206" y2="163.21227" id="Stroke-11" stroke="#EBE8E1" stroke-width="4" stroke-linecap="round" stroke-linejoin="round"></line>
                            <path d="M195.49023,217.873767 C197.834704,218.281327 201.183761,228.608426 194.854486,229.384668" id="Stroke-13" stroke="#EBE8E1" stroke-width="4" stroke-linecap="round" stroke-linejoin="round"></path>
                            <path d="M142.667409,242.19802 C142.458176,242.608262 142.231508,243.245075 141.770124,243.247756" id="Stroke-15" stroke="#EBE8E1" stroke-width="4" stroke-linecap="round" stroke-linejoin="round"></path>
                            <path d="M151.10899,235.091587 C147.521194,236.181543 144.583895,238.773037 143.053549,242.195741 C143.053549,242.195741 149.118601,222.494752 150.716009,202.792422" id="Stroke-17" stroke="#EBE8E1" stroke-width="4" stroke-linecap="round" stroke-linejoin="round"></path>
                            <path d="M142.673981,2.7626967 C141.637208,1.16865275 140.95318,0.0331142857 140.187336,-0.000402197802 C139.131786,-0.044643956 137.734222,2.79487253 137.734222,2.79487253 C132.142625,11.6365209 128.118928,33.2533121 128.20745,46.9065868" id="Stroke-19" stroke="#EBE8E1" stroke-width="4" stroke-linecap="round" stroke-linejoin="round"></path>
                            <path d="M132.845163,205.912538 C133.279722,208.697088 130.950001,210.284429 128.935471,210.655791" id="Stroke-21" stroke="#EBE8E1" stroke-width="4" stroke-linecap="round" stroke-linejoin="round"></path>
                            <line x1="88.4273066" y1="230.068002" x2="132.327179" y2="235.214793" id="Stroke-23" stroke="#EBE8E1" stroke-width="4" stroke-linecap="round" stroke-linejoin="round"></line>
                            <line x1="128.935471" y1="210.655925" x2="87.7194043" y2="218.577881" id="Stroke-25" stroke="#EBE8E1" stroke-width="4" stroke-linecap="round" stroke-linejoin="round"></line>
                            <path d="M128.966855,163.372747 C129.0594,177.610549 130.192742,191.923429 132.845699,205.911868 C132.845699,205.911868 134.864254,232.408659 140.475969,242.212901 L141.766235,242.204857" id="Stroke-27" stroke="#EBE8E1" stroke-width="4" stroke-linecap="round" stroke-linejoin="round"></path>
                            <line x1="128.207182" y1="46.906989" x2="128.966319" y2="163.372747" id="Stroke-29" stroke="#EBE8E1" stroke-width="4" stroke-linecap="round" stroke-linejoin="round"></line>
                            <path d="M87.7266469,218.575468 C85.3888791,219.013864 82.1739455,229.383864 88.512609,230.076985" id="Stroke-31" stroke="#EBE8E1" stroke-width="4" stroke-linecap="round" stroke-linejoin="round"></path>
                            <path d="M140.862512,242.209818 C141.077109,242.617378 141.313166,243.250169 141.773209,243.247488" id="Stroke-33" stroke="#EBE8E1" stroke-width="4" stroke-linecap="round" stroke-linejoin="round"></path>
                            <path d="M132.327849,235.214525 C135.930399,236.256218 138.901228,238.810174 140.475835,242.212767" id="Stroke-35" stroke="#EBE8E1" stroke-width="4" stroke-linecap="round" stroke-linejoin="round"></path>
                            <line x1="209.44602" y1="79.9429802" x2="188.589859" y2="78.4950681" id="Stroke-37" stroke="#EBE8E1" stroke-width="4" stroke-linecap="round" stroke-linejoin="round"></line>
                            <path d="M220.564969,80.7075582 L276.4796,84.5552505 C277.996533,84.6490967 279.36459,85.3462396 280.34369,86.3785473 C281.255727,87.343822 281.832457,88.6174484 281.912931,90.0251407 L281.926344,90.3468989 C282.006818,92.1031626 281.790879,93.8594264 281.295964,95.5486571 L281.322789,95.6425033 C280.625348,97.9752505 278.653737,99.7047011 276.252931,100.093492 L159.029235,118.782284 C155.555443,119.305141 153.878903,124.118108 153.302173,127.644042 L153.302173,127.657448 C153.288761,127.737888 153.275348,127.791514 153.261936,127.858547" id="Stroke-39" stroke="#EBE8E1" stroke-width="4" stroke-linecap="round" stroke-linejoin="round"></path>
                            <polyline id="Stroke-41" stroke="#EBE8E1" stroke-width="4" stroke-linecap="round" stroke-linejoin="round" points="173.501264 77.4626264 152.965658 76.0415275 152.899937 76.0415275"></polyline>
                            <line x1="93.1347635" y1="78.7233824" x2="72.2101995" y2="80.1578879" id="Stroke-43" stroke="#EBE8E1" stroke-width="4" stroke-linecap="round" stroke-linejoin="round"></line>
                            <polyline id="Stroke-45" stroke="#EBE8E1" stroke-width="4" stroke-linecap="round" stroke-linejoin="round" points="108.223626 77.6772659 127.605069 76.2829802 128.223626 76.2427604"></polyline>
                            <path d="M61.2398588,80.9085231 L5.47142275,84.7562154 C2.52071185,84.9573143 0.213792417,87.3168747 0.0260199052,90.2261055 L0.0260199052,90.3467648 C0.0126075829,90.4137978 0.0126075829,90.4942374 0.0126075829,90.5612703 C-0.0544540284,92.3175341 0.146730806,94.0737978 0.656399052,95.749622 L0.629574408,95.8568747 C1.31360284,98.189622 3.28521422,99.9190725 5.68601991,100.294457 L122.923129,118.983248 C126.463982,119.519512 128.140522,124.520171 128.677015,128.058171" id="Stroke-47" stroke="#EBE8E1" stroke-width="4" stroke-linecap="round" stroke-linejoin="round"></path>
                            <path d="M70.8289986,96.8890484 C70.9228848,91.2984989 70.5084441,85.4666308 72.2104678,80.1576198 C72.2922829,79.8894879 72.384828,79.6079495 72.4787142,79.3398176" id="Stroke-49" stroke="#EBE8E1" stroke-width="4" stroke-linecap="round" stroke-linejoin="round"></path>
                            <path d="M62.5535957,98.2833341 C62.7145436,92.4916857 63.3315104,86.2978396 61.2405294,80.908389 C61.1734678,80.6670703 61.0661692,80.4391582 60.9709417,80.2112462" id="Stroke-51" stroke="#EBE8E1" stroke-width="4" stroke-linecap="round" stroke-linejoin="round"></path>
                            <path d="M62.5535957,98.2833341 C62.7292972,102.372345 70.6693919,104.691686 70.8289986,96.8890484" id="Stroke-53" stroke="#EBE8E1" stroke-width="4" stroke-linecap="round" stroke-linejoin="round"></path>
                            <path d="M72.4347218,65.6329165 C72.4870299,68.0259934 72.4964185,71.2770923 72.4763,79.3451802" id="Stroke-55" stroke="#EBE8E1" stroke-width="4" stroke-linecap="round" stroke-linejoin="round"></path>
                            <path d="M71.250682,59.3696242 C72.1385777,59.9595143 72.3464687,61.5455143 72.43499,65.6331846" id="Stroke-57" stroke="#EBE8E1" stroke-width="4" stroke-linecap="round" stroke-linejoin="round"></path>
                            <path d="M61.0080938,65.6329165 C60.957127,68.0259934 60.9463972,71.2770923 60.9691981,80.2125868" id="Stroke-59" stroke="#EBE8E1" stroke-width="4" stroke-linecap="round" stroke-linejoin="round"></path>
                            <path d="M62.1921336,59.3696242 C61.3055791,59.9595143 61.0963469,61.5455143 61.0078256,65.6331846" id="Stroke-61" stroke="#EBE8E1" stroke-width="4" stroke-linecap="round" stroke-linejoin="round"></path>
                            <line x1="62.61261" y1="59.1915846" x2="70.6144014" y2="59.1915846" id="Stroke-63" stroke="#EBE8E1" stroke-width="4" stroke-linecap="round" stroke-linejoin="round"></line>
                            <path d="M106.06384,101.648121 C106.184551,93.9527363 105.594409,85.8953736 108.223224,78.6558132" id="Stroke-65" stroke="#EBE8E1" stroke-width="4" stroke-linecap="round" stroke-linejoin="round"></path>
                            <path d="M93.1347635,79.7956418 C96.2987303,87.0620154 95.4416829,95.5617956 95.2136735,103.485092" id="Stroke-67" stroke="#EBE8E1" stroke-width="4" stroke-linecap="round" stroke-linejoin="round"></path>
                            <path d="M95.2134052,103.484958 C95.4280024,108.834189 105.849377,111.877486 106.063974,101.648255" id="Stroke-69" stroke="#EBE8E1" stroke-width="4" stroke-linecap="round" stroke-linejoin="round"></path>
                            <path d="M108.223626,78.6559473 L108.223626,77.6772659 C108.250451,67.8100132 108.237038,63.7210022 108.169977,60.6911121" id="Stroke-71" stroke="#EBE8E1" stroke-width="4" stroke-linecap="round" stroke-linejoin="round"></path>
                            <path d="M106.611331,52.4758198 C107.772838,53.2493802 108.047791,55.3260615 108.163136,60.6860176" id="Stroke-73" stroke="#EBE8E1" stroke-width="4" stroke-linecap="round" stroke-linejoin="round"></path>
                            <path d="M93.1347635,79.7956418 L93.1347635,78.7231143 C93.1065976,67.8101473 93.12001,63.7211363 93.1884128,60.6912462" id="Stroke-75" stroke="#EBE8E1" stroke-width="4" stroke-linecap="round" stroke-linejoin="round"></path>
                            <path d="M94.7365972,52.4758198 C93.57509,53.2493802 93.3014787,55.3260615 93.1847915,60.6860176" id="Stroke-77" stroke="#EBE8E1" stroke-width="4" stroke-linecap="round" stroke-linejoin="round"></path>
                            <line x1="95.2894531" y1="52.2426791" x2="105.775207" y2="52.2426791" id="Stroke-79" stroke="#EBE8E1" stroke-width="4" stroke-linecap="round" stroke-linejoin="round"></line>
                            <path d="M112.251212,52.7696923 L89.7614303,52.7696923 C89.0210701,52.7696923 88.4201981,52.1690769 88.4201981,51.429033 C88.4201981,50.688989 89.0210701,50.0883736 89.7614303,50.0883736 L112.251212,50.0883736 C112.992914,50.0883736 113.592445,50.688989 113.592445,51.429033 C113.592445,52.1690769 112.992914,52.7696923 112.251212,52.7696923" id="Fill-81" fill="#EBE8E1"></path>
                            <path d="M75.2547967,59.4998022 L58.8528678,59.4998022 C58.1125076,59.4998022 57.5116355,58.8991868 57.5116355,58.1591429 C57.5116355,57.4190989 58.1125076,56.8184835 58.8528678,56.8184835 L75.2547967,56.8184835 C75.9951569,56.8184835 76.5960289,57.4190989 76.5960289,58.1591429 C76.5960289,58.8991868 75.9951569,59.4998022 75.2547967,59.4998022" id="Fill-83" fill="#EBE8E1"></path>
                            <path d="M209.360986,79.3282879 C209.453531,79.5964198 209.548758,79.8779582 209.629232,80.1460901 C211.332597,85.4551011 210.916815,91.2869692 211.00936,96.8775187" id="Stroke-85" stroke="#EBE8E1" stroke-width="4" stroke-linecap="round" stroke-linejoin="round"></path>
                            <path d="M220.868758,80.1995824 C220.774872,80.4274945 220.667573,80.6554066 220.600512,80.8967253 C218.506848,86.2861758 219.123815,92.480022 219.284763,98.2716703" id="Stroke-87" stroke="#EBE8E1" stroke-width="4" stroke-linecap="round" stroke-linejoin="round"></path>
                            <path d="M211.010031,96.8772505 C211.170979,104.679888 219.111073,102.360547 219.285434,98.2715363" id="Stroke-89" stroke="#EBE8E1" stroke-width="4" stroke-linecap="round" stroke-linejoin="round"></path>
                            <path d="M209.363534,79.3335165 C209.343416,71.2654286 209.352804,68.0143297 209.403771,65.6212527" id="Stroke-91" stroke="#EBE8E1" stroke-width="4" stroke-linecap="round" stroke-linejoin="round"></path>
                            <path d="M209.404173,65.6211187 C209.491354,61.5334484 209.701927,59.948789 210.588482,59.3588989" id="Stroke-93" stroke="#EBE8E1" stroke-width="4" stroke-linecap="round" stroke-linejoin="round"></path>
                            <path d="M220.871441,80.200789 C220.8929,71.2652945 220.883512,68.0141956 220.832545,65.6211187" id="Stroke-95" stroke="#EBE8E1" stroke-width="4" stroke-linecap="round" stroke-linejoin="round"></path>
                            <path d="M220.832143,65.6211187 C220.744963,61.5334484 220.534389,59.948789 219.647835,59.3588989" id="Stroke-97" stroke="#EBE8E1" stroke-width="4" stroke-linecap="round" stroke-linejoin="round"></path>
                            <line x1="211.226103" y1="59.1797868" x2="219.226554" y2="59.1797868" id="Stroke-99" stroke="#EBE8E1" stroke-width="4" stroke-linecap="round" stroke-linejoin="round"></line>
                            <path d="M173.61661,78.6441495 C176.245426,85.8837099 175.656625,93.9410725 175.775994,101.636457" id="Stroke-101" stroke="#EBE8E1" stroke-width="4" stroke-linecap="round" stroke-linejoin="round"></path>
                            <path d="M186.626831,103.47316 C186.398822,95.5498637 185.539092,87.0500835 188.705741,79.7837099" id="Stroke-103" stroke="#EBE8E1" stroke-width="4" stroke-linecap="round" stroke-linejoin="round"></path>
                            <path d="M175.776397,101.636993 C175.990994,111.866224 186.412368,108.822927 186.626965,103.473697" id="Stroke-105" stroke="#EBE8E1" stroke-width="4" stroke-linecap="round" stroke-linejoin="round"></path>
                            <path d="M173.67026,60.6794484 C173.603198,63.7093385 173.589786,67.7983495 173.61661,77.6656022 L173.61661,78.6442835" id="Stroke-107" stroke="#EBE8E1" stroke-width="4" stroke-linecap="round" stroke-linejoin="round"></path>
                            <path d="M173.676832,60.6735495 C173.792178,55.3149341 174.065789,53.2382527 175.228637,52.4633516" id="Stroke-109" stroke="#EBE8E1" stroke-width="4" stroke-linecap="round" stroke-linejoin="round"></path>
                            <path d="M188.65169,60.6794484 C188.718751,63.7093385 188.733505,67.7983495 188.705339,78.7113165 L188.705339,79.783844" id="Stroke-111" stroke="#EBE8E1" stroke-width="4" stroke-linecap="round" stroke-linejoin="round"></path>
                            <path d="M188.654372,60.6735495 C188.539026,55.3149341 188.265415,53.2382527 187.102566,52.4633516" id="Stroke-113" stroke="#EBE8E1" stroke-width="4" stroke-linecap="round" stroke-linejoin="round"></path>
                            <line x1="176.064627" y1="52.2310154" x2="186.550381" y2="52.2310154" id="Stroke-115" stroke="#EBE8E1" stroke-width="4" stroke-linecap="round" stroke-linejoin="round"></line>
                            <path d="M169.58889,52.7578945 L192.078672,52.7578945 C192.817691,52.7578945 193.419904,52.1572791 193.419904,51.4172352 C193.419904,50.6771912 192.817691,50.0765758 192.078672,50.0765758 L169.58889,50.0765758 C168.847189,50.0765758 168.247658,50.6771912 168.247658,51.4172352 C168.247658,52.1572791 168.847189,52.7578945 169.58889,52.7578945" id="Fill-117" fill="#EBE8E1"></path>
                            <path d="M206.58544,59.4880044 L222.987369,59.4880044 C223.727729,59.4880044 224.328601,58.887389 224.328601,58.1473451 C224.328601,57.4073011 223.727729,56.8066857 222.987369,56.8066857 L206.58544,56.8066857 C205.84508,56.8066857 205.244208,57.4073011 205.244208,58.1473451 C205.244208,58.887389 205.84508,59.4880044 206.58544,59.4880044" id="Fill-119" fill="#EBE8E1"></path>
                        </g>
                    </g>
                </g>
            </g>
        </g>
    </g>
</svg>