<?xml version="1.0" encoding="UTF-8"?>
<svg width="108px" height="108px" viewBox="0 0 108 108" version="1.1" xmlns="http://www.w3.org/2000/svg" xmlns:xlink="http://www.w3.org/1999/xlink">
    <title>9755B664-FD65-4866-B4D5-87F1A74BA1B3</title>
    <g id="Beta-Production-(Oct-2020)" stroke="none" stroke-width="1" fill="none" fill-rule="evenodd">
        <g id="Intro-DC-7" transform="translate(-908.000000, -591.000000)" fill-rule="nonzero">
            <g id="thumbnail/2" transform="translate(687.000000, 355.000000)">
                <g id="icon_plus" transform="translate(221.000000, 236.000000)">
                    <path d="M0,53.055 C0,23.7535326 23.7535326,0 53.055,0 C82.3564674,0 106.11,23.7535326 106.11,53.055 C106.11,82.3564674 82.3564674,106.11 53.055,106.11 C23.7658707,106.080235 0.0297653984,82.3441293 0,53.055 Z M101.115,53.055 C101.115,26.5121949 79.5978051,4.995 53.055,4.995 C26.5121949,4.995 4.995,26.5121949 4.995,53.055 C4.995,79.5978051 26.5121949,101.115 53.055,101.115 C79.5854686,101.085241 101.085241,79.5854686 101.115,53.055 L101.115,53.055 Z" id="Shape" fill="#FFFFFF"></path>
                    <circle id="Oval" fill="#000000" opacity="0.55" cx="53.055" cy="53.055" r="48.006"></circle>
                    <polygon id="Path" fill="#FFFFFF" points="68.661 55.944 68.607 50.274 55.755 50.274 55.755 37.503 50.085 37.476 50.085 50.274 37.449 50.274 37.476 55.944 50.085 55.944 50.112 68.607 55.782 68.661 55.782 55.944"></polygon>
                </g>
            </g>
        </g>
    </g>
</svg>